<ttFont>
<head>
    <!-- Most of this table will be recalculated by the compiler -->
    <tableVersion value="1.0"/>
    <fontRevision value="1.0"/>
    <checkSumAdjustment value="0x75886123"/>
    <magicNumber value="0x5f0f3cf5"/>
    <flags value="00000000 00000011"/>
    <unitsPerEm value="1000"/>
    <created value="Sat Jul 13 05:34:46 2024"/>
    <modified value="Sat Jul 13 05:34:46 2024"/>
    <xMin value="15"/>
    <yMin value="-20"/>
    <xMax value="327"/>
    <yMax value="620"/>
    <macStyle value="00000000 00000000"/>
    <lowestRecPPEM value="3"/>
    <fontDirectionHint value="2"/>
    <indexToLocFormat value="0"/>
    <glyphDataFormat value="0"/>
  </head>
              <CharString index="0">
                0 0 0</CharString>
              <CharString index="1">
                2 blend
                rmoveto
              </CharString>
              <CharString index="2">
                -107 callsubr
                0</CharString>
              <CharString index="3">
                2 blend
                rlineto
              </CharString>
              <CharString index="4">
                16 blend
                vhcurveto
              </CharString>
              <CharString index="5">
                -30 -105 callsubr
                40 -180 0 100</CharString>
        <CharString name=".notdef">
        </CharString>
        <CharString name="DC_0030_00">
        </CharString>
        <CharString name="DC_0031_00">
        </CharString>
        <CharString name="DC_0032_00">
        </CharString>
        <CharString name="DC_0033_00">
        </CharString>
        <CharString name="DC_0034_00">
        </CharString>
        <CharString name="DC_0035_00">
        </CharString>
        <CharString name="DC_0036_00">
        </CharString>
        <CharString name="DC_0037_00">
        </CharString>
        <CharString name="DC_0038_00">
        </CharString>
        <CharString name="DC_0039_00">
        </CharString>
        <CharString name="eight_00">
          307 162 260 190 0 1 -106 callsubr
          109 -48 59 -88 -83 -53 -66 -102 -110 50 -64 86 82 54 69 105 -5 -4 -45 -51 5 9 -65 -49 -61 -52 -49 -48 -3 -3 3 -2 5 4 47 50 -5 -5 63 50 62 54 48 46 3 0 -3 1 -103 callsubr
          -30 -1 0 -170 0 28 -106 callsubr
          -94 -39 -54 -67 -67 -39 54 94 94 39 54 67 67 39 -54 -94 4 50 -46 27 -4 31 -64 43 -64 43 -46 27 4 -31 -4 -50 -4 -54 46 -25 4 -27 64 -45 64 -43 46 -27 -4 31 4 50 -103 callsubr
          15 299 -10 175 0 -39 -106 callsubr
          97 -44 55 -77 -71 -50 -62 -90 -97 44 -54 77 72 49 61 90 -2 0 -39 -52 2 10 -61 -53 -59 -59 -41 -46 -1 -3 1 -7 3 0 39 47 -3 -5 61 58 59 64 41 41 1 -3 -1 8 -103 callsubr
          -30 -1 0 -165 0 -34 -106 callsubr
          -81 -34 -48 -57 -57 -34 48 81 79 35 49 56 56 35 -49 -79 2 41 -40 23 -2 26 -60 37 -60 39 -40 21 2 -23 -2 -44 -1 -38 40 -24 1 -28 60 -36 60 -36 40 -24 -1 28 1 38 -103 callsubr
        </CharString>
        <CharString name="five_00">
          53 343 30 10 -40 -46 -106 callsubr
          28 0 0 137 14 0 2 blend
          rlineto
          257 -28 26 46 0 -137 2 blend
          vlineto
          190 -25 240 141 0 -120 -106 callsubr
          25 -190 -25 0 120 -240 -141 0 -120 3 blend
          vlineto
          -33 -547 10 -20 32 143 -106 callsubr
          -26 26 35 -14 39 -20 -12 23 27 42 25 -12 -11 50 41 5 blend
          hhcurveto
          88 53 71 119 121 -51 69 -90 -24 -21 -6 -13 -22 65 44 50 46 5 17 -5 3 -6 -6 -49 -35 6 6 -66 -43 -50 -28 -44 -39 -11 -11 -20 -12 -31 -18 13 blend
          hvcurveto
          -16 -9 -84 1 blend
          vlineto
          7 30 16 3 17 25 2 16 1 54 10 15 1 60 9 5 blend
          hhcurveto
          75 40 -58 -107 -106 -39 -59 -71 -31 -29 11 21 -22 60 -13 50 -4 -8 34 8 67 7 70 -51 10 -7 35 -64 29 -48 -6 -40 1 11 0 21 1 -29 -14 13 blend
          hvcurveto
        </CharString>
        <CharString name="four_00">
          2 vsindex
          212 20 0 -10 0 0 -50 220 1 blend
          hmoveto
          28 -105 callsubr
          0 162 0 1 blend
          600 -28 -105 callsubr
          0 -162 0 1 blend
          hlineto
          -197 -455 -102 callsubr
          -65 -105 callsubr
          2 blend
          rmoveto
          297 25 -297 30 0 0 100 0 120 250 0 0 130 -105 callsubr
          -30 0 0 -100 0 -120 -250 3 blend
          hlineto
          29 181 -105 callsubr
          0 4 1 blend
          hmoveto
          188 412 -151 -107 callsubr
          -10 -40 176 -341 -100 -64 0 200 -6 3 -104 callsubr
          18 -20 341 0 -1 0 -200 6 -3 -105 callsubr
          10 0 0 2 blend
          vlineto
          -197 -430 -102 callsubr
          65 -105 callsubr
          2 blend
          rlineto
        </CharString>
        <CharString name="nine_00">
          3 vsindex
          279 414 0 280 201 0 -10 -25 -106 callsubr
          127 -39 71 -81 -80 -44 -68 -123 -107 39 -62 78 47 36 24 41 9 0 -2 0 0 -55 -54 0 12 25 0 -60 -54 0 -67 -51 0 -58 -52 0 -14 -26 0 6 -10 0 -1 -10 0 56 48 0 -11 -24 0 61 37 0 68 12 -3 45 13 0 22 -3 0 40 13 0 20 33 17 blend
          vhcurveto
          -6 -10 -24 -99 -58 -119 -81 -94 0 0 -101 0 10 15 0 -4 -31 0 -31 11 -17 -52 25 15 3 76 0 -90 -3 10 -14 3 8 blend
          rlinecurve
          21 -15 20 -21 98 -25 -10 -70 -104 callsubr
          117 136 66 172 126 0 86 92 0 -14 97 0 71 -12 0 -20 -91 0 24 -6 5 blend
          vvcurveto
          -30 12 0 -1 -155 0 0 -9 -106 callsubr
          -98 -30 -51 -62 -62 -30 51 98 102 32 59 60 60 32 -59 -102 0 3 40 0 -54 17 0 -13 25 0 -65 33 0 -65 37 0 -54 17 0 13 -22 0 -3 -43 0 -3 -47 0 56 -19 0 13 -29 0 63 -35 0 63 -31 0 56 -19 0 -13 32 0 3 44 -103 callsubr
        </CharString>
        <CharString name="one_00">
          105 70 30 1 blend
          hmoveto
          29 0 161 1 blend
          600 -24 0 -131 1 blend
          hlineto
          -18 -18 -10 0 -10 1 2 blend
          -2 -2 -15 1 0 -10 -1 2 blend
          hvcurveto
          -29 -4 -70 -70 -1 -10 -104 callsubr
          -20 75 0 -105 100 40 2 blend
          vlineto
        </CharString>
        <CharString name="seven_00">
          4 vsindex
          30 0 0 40 10 1 blend
          hmoveto
          28 100 0 6 162 1 blend
          hlineto
          224 580 0 0 220 -40 -107 callsubr
          -100 -104 callsubr
          -28 -100 0 -6 -162 1 blend
          hlineto
          -211 -5 0 0 -214 7 0 -100 0 -25 -106 callsubr
          229 100 -50 220 15 1 blend
          hlineto
          10 5 0 50 0 140 0 100 0 25 -104 callsubr
          20 -239 -107 callsubr
          100 -100 0 -220 -155 2 blend
          vlineto
        </CharString>
        <CharString name="six_00">
          3 vsindex
          35 196 0 40 -10 0 0 15 -106 callsubr
          -137 39 -71 81 80 44 68 133 117 -39 62 -78 -47 -33 -24 -41 -9 0 12 10 0 55 54 0 -12 -25 0 60 54 0 67 51 0 58 52 0 14 26 0 -16 0 0 -9 0 0 -56 -48 0 11 24 0 -61 -37 0 -68 -12 0 -48 -16 0 -22 3 0 -40 -13 0 -20 -33 17 blend
          vhcurveto
          6 10 24 99 55 99 81 94 0 0 101 0 -10 -15 0 4 31 0 31 -11 20 55 -22 -15 17 -56 0 90 3 -10 14 -3 8 blend
          rlinecurve
          -21 15 -20 21 -98 25 10 70 -104 callsubr
          -117 -136 -66 -152 -136 0 -86 -92 0 14 -97 0 -71 12 0 0 71 0 -14 16 5 blend
          vvcurveto
          30 -12 0 1 155 0 0 9 -106 callsubr
          108 30 51 62 62 30 -51 -108 -112 -32 -59 -60 -60 -32 59 112 0 -13 -50 0 54 -17 0 13 -25 0 65 -33 0 65 -37 0 54 -17 0 -13 22 0 13 53 0 13 57 0 -56 19 0 -13 29 0 -63 35 0 -63 31 0 -56 19 0 13 -32 0 -13 -54 -103 callsubr
        </CharString>
        <CharString name="three_00">
          268 151 247 162 10 15 -106 callsubr
          99 -52 63 -82 -6 0 -36 -37 -4 0 -56 -55 4 blend
          vhcurveto
          -67 -20 66 -90 -60 0 -70 90 40 3 blend
          hlineto
          64 41 -57 -89 -86 -40 -49 -70 -33 -29 11 21 -22 55 -29 35 -19 4 36 6 57 -1 54 -41 14 -9 27 -54 31 -43 1 -44 11 13 -5 20 5 -23 -17 13 blend
          hvcurveto
          -19 -16 0 -57 0 -86 -104 callsubr
          -27 27 35 -13 43 -19 -20 20 22 44 34 -14 -13 45 38 5 blend
          hhcurveto
          85 53 63 100 55 42 43 41 7 12 3 3 4 blend
          hvcurveto
          -18 308 -20 -30 1 blend
          rmoveto
          94 -48 59 -75 -37 -36 -16 -28 -26 1 1 -42 -40 9 14 -52 -39 -42 -30 -39 -38 -10 -12 -18 -16 -26 -24 9 blend
          vhcurveto
          19 -16 -4 57 -3 -87 -104 callsubr
          21 18 30 14 29 26 2 39 13 25 -7 5 -5 49 -1 5 blend
          hhcurveto
          62 34 -45 -84 -79 -38 -61 -48 49 -27 41 -11 -11 25 1 53 4 50 -37 21 6 40 -53 14 8 blend
          hvcurveto
          -67 -15 68 -90 -40 0 -65 90 50 3 blend
          hlineto
          68 47 64 92 55 62 37 40 -5 -2 -5 2 4 blend
          hvcurveto
        </CharString>
        <CharString name="two_00">
          1 vsindex
          43 25 10 60 0 66 147 0 90 0 0 125 -106 callsubr
          -10 -5 0 -60 0 -20 -140 0 -90 0 0 -25 -104 callsubr
          -20 257 25 -105 callsubr
          -100 0 0 200 223 137 0 90 0 0 125 3 blend
          vlineto
          -265 534 0 0 -200 -229 -154 0 -90 0 -36 -143 -106 callsubr
          16 -18 -105 callsubr
          51 -107 callsubr
          -1 -113 -104 callsubr
          35 34 33 11 35 -107 callsubr
          23 -12 -107 callsubr
          27 -10 -107 callsubr
          29 -9 -107 callsubr
          14 4 -107 callsubr
          50 -2 5 blend
          hhcurveto
          61 41 -44 -65 -65 -30 -49 -40 -76 -107 callsubr
          51 -21 -107 callsubr
          36 -15 -107 callsubr
          -21 24 -107 callsubr
          -27 33 -107 callsubr
          -27 29 -107 callsubr
          -37 6 -107 callsubr
          -11 23 -107 callsubr
          -36 6 -107 callsubr
          17 32 9 blend
          hvcurveto
          -142 -268 32 0 132 251 -107 callsubr
          -114 11 -107 callsubr
          69 98 20 0 0 9 172 -105 callsubr
          -10 -107 callsubr
          94 -28 -107 callsubr
          -76 -110 6 blend
          rlineto
          53 101 26 35 71 -107 callsubr
          43 -1 -107 callsubr
          -27 -30 -10 0 0 42 -4 -107 callsubr
          24 10 -14 0 0 31 -7 5 blend
          vvcurveto
          80 -53 54 -78 -40 -41 -14 -39 -39 13 0 0 28 26 -9 0 0 -36 -35 1 0 0 20 21 -107 callsubr
          -53 -46 -1 0 0 -49 -32 -107 callsubr
          -30 -29 -107 callsubr
          -14 -12 -107 callsubr
          -22 -6 -107 callsubr
          -26 -14 9 blend
          vhcurveto
        </CharString>
        <CharString name="uni0030">
        </CharString>
        <CharString name="uni0030.inf">
        </CharString>
        <CharString name="uni0030.of">
        </CharString>
        <CharString name="uni0030.sc">
        </CharString>
        <CharString name="uni0030.sup">
        </CharString>
        <CharString name="uni0030.tab">
        </CharString>
        <CharString name="uni0031">
        </CharString>
        <CharString name="uni0031.inf">
        </CharString>
        <CharString name="uni0031.of">
        </CharString>
        <CharString name="uni0031.sc">
        </CharString>
        <CharString name="uni0031.sup">
        </CharString>
        <CharString name="uni0031.tab">
        </CharString>
        <CharString name="uni0032">
        </CharString>
        <CharString name="uni0032.inf">
        </CharString>
        <CharString name="uni0032.of">
        </CharString>
        <CharString name="uni0032.sc">
        </CharString>
        <CharString name="uni0032.sup">
        </CharString>
        <CharString name="uni0032.tab">
        </CharString>
        <CharString name="uni0033">
        </CharString>
        <CharString name="uni0033.inf">
        </CharString>
        <CharString name="uni0033.of">
        </CharString>
        <CharString name="uni0033.sc">
        </CharString>
        <CharString name="uni0033.sup">
        </CharString>
        <CharString name="uni0033.tab">
        </CharString>
        <CharString name="uni0034">
        </CharString>
        <CharString name="uni0034.inf">
        </CharString>
        <CharString name="uni0034.of">
        </CharString>
        <CharString name="uni0034.sc">
        </CharString>
        <CharString name="uni0034.sup">
        </CharString>
        <CharString name="uni0034.tab">
        </CharString>
        <CharString name="uni0035">
        </CharString>
        <CharString name="uni0035.inf">
        </CharString>
        <CharString name="uni0035.of">
        </CharString>
        <CharString name="uni0035.sc">
        </CharString>
        <CharString name="uni0035.sup">
        </CharString>
        <CharString name="uni0035.tab">
        </CharString>
        <CharString name="uni0036">
        </CharString>
        <CharString name="uni0036.inf">
        </CharString>
        <CharString name="uni0036.of">
        </CharString>
        <CharString name="uni0036.sc">
        </CharString>
        <CharString name="uni0036.sup">
        </CharString>
        <CharString name="uni0036.tab">
        </CharString>
        <CharString name="uni0037">
        </CharString>
        <CharString name="uni0037.inf">
        </CharString>
        <CharString name="uni0037.of">
        </CharString>
        <CharString name="uni0037.sc">
        </CharString>
        <CharString name="uni0037.sup">
        </CharString>
        <CharString name="uni0037.tab">
        </CharString>
        <CharString name="uni0038">
        </CharString>
        <CharString name="uni0038.inf">
        </CharString>
        <CharString name="uni0038.of">
        </CharString>
        <CharString name="uni0038.sc">
        </CharString>
        <CharString name="uni0038.sup">
        </CharString>
        <CharString name="uni0038.tab">
        </CharString>
        <CharString name="uni0039">
        </CharString>
        <CharString name="uni0039.inf">
        </CharString>
        <CharString name="uni0039.of">
        </CharString>
        <CharString name="uni0039.sc">
        </CharString>
        <CharString name="uni0039.sup">
        </CharString>
        <CharString name="uni0039.tab">
        </CharString>
        <CharString name="zero_00">
          327 330 190 1 blend
          301 rmoveto
          211 -47 100 -99 -97 -49 -104 -207 -217 45 -96 101 97 49 105 208 -16 -2 -61 -37 16 2 -84 -63 -80 -64 -65 -36 -17 1 17 -1 21 8 63 40 -21 -8 82 60 80 65 65 35 17 -2 -17 2 16 blend
          vhcurveto
          -30 -2 -170 1 blend
          -1 rmoveto
          -193 -38 -94 -78 -78 -38 94 193 193 38 94 78 78 38 -94 -193 14 79 -59 28 -12 41 -84 42 -84 42 -59 28 12 -41 -14 -79 -14 -79 59 -28 12 -41 84 -42 84 -42 59 -28 -12 41 14 79 -103 callsubr
        </CharString>
</ttFont>
